<svg width="32" height="32" viewBox="0 0 32 32" fill="none" xmlns="http://www.w3.org/2000/svg">
<g clip-path="url(#clip0)">
<path d="M31.008 27.231L23.428 20.784C22.644 20.079 21.806 19.755 21.129 19.786C22.918 17.69 23.999 14.971 23.999 11.999C23.999 5.37199 18.626 -0.00100708 11.999 -0.00100708C5.37202 -0.00100708 -0.000976562 5.37199 -0.000976562 11.999C-0.000976562 18.626 5.37202 23.999 11.999 23.999C14.971 23.999 17.69 22.918 19.786 21.129C19.755 21.806 20.079 22.644 20.784 23.428L27.231 31.008C28.335 32.234 30.138 32.338 31.238 31.238C32.338 30.138 32.235 28.335 31.008 27.231ZM12 20C7.58202 20 4.00002 16.418 4.00002 12C4.00002 7.58199 7.58202 3.99999 12 3.99999C16.418 3.99999 20 7.58199 20 12C20 16.418 16.418 20 12 20Z" fill="white"/>
</g>
<defs>
<clipPath id="clip0">
<rect width="32" height="32" fill="white"/>
</clipPath>
</defs>
</svg>
