<svg width="46" height="46" viewBox="0 0 46 46" fill="none" xmlns="http://www.w3.org/2000/svg">
<path d="M23 0C10.3093 0 0 10.3093 0 23C0 35.6907 10.3093 46 23 46C35.6907 46 46 35.6907 46 23C46 10.3093 35.6907 0 23 0ZM23 2C34.6098 2 44 11.3902 44 23C44 34.6098 34.6098 44 23 44C11.3902 44 2 34.6098 2 23C2 11.3902 11.3902 2 23 2ZM24.5801 8C21.9282 8 19.9171 8.86722 18.6777 10.4004C17.4384 11.9336 17 13.981 17 16.2266V18H15C14.7348 18 14.4805 18.1054 14.2929 18.2929C14.1054 18.4805 14 18.7348 14 19V24C14 24.2652 14.1054 24.5195 14.2929 24.7071C14.4805 24.8946 14.7348 25 15 25H17V37C17 37.2652 17.1054 37.5195 17.2929 37.7071C17.4805 37.8946 17.7348 38 18 38H24C24.2652 38 24.5195 37.8946 24.7071 37.7071C24.8946 37.5195 25 37.2652 25 37V25H29C29.2313 24.9999 29.4554 24.9197 29.6341 24.773C29.8129 24.6263 29.9353 24.4221 29.9805 24.1953L30.9805 19.1953C31.0093 19.0503 31.0057 18.9007 30.9698 18.7573C30.9339 18.6138 30.8666 18.4802 30.7729 18.3658C30.6791 18.2515 30.5611 18.1594 30.4275 18.0962C30.2939 18.0329 30.1479 18.0001 30 18H25V15.8066C25 15.3216 25.0314 15.3256 25.1719 15.2344C25.3124 15.1431 25.8202 15 26.7109 15H30C30.2652 15 30.5195 14.8946 30.7071 14.7071C30.8946 14.5195 31 14.2652 31 14V10C30.9999 9.79376 30.936 9.5926 30.8171 9.42407C30.6983 9.25555 30.5302 9.12789 30.3359 9.05859C30.3359 9.05859 27.4563 8 24.5801 8ZM24.5801 10C26.4725 10 28.2275 10.5104 29 10.752V13H26.7109C25.6637 13 24.814 13.0846 24.084 13.5586C23.354 14.0326 23 14.9407 23 15.8066V19C23 19.2652 23.1054 19.5195 23.2929 19.7071C23.4805 19.8946 23.7348 20 24 20H28.7793L28.1797 23H24C23.7348 23 23.4805 23.1054 23.2929 23.2929C23.1054 23.4805 23 23.7348 23 24V36H19V24C19 23.7348 18.8946 23.4805 18.7071 23.2929C18.5195 23.1054 18.2652 23 18 23H16V20H18C18.2652 20 18.5195 19.8946 18.7071 19.7071C18.8946 19.5195 19 19.2652 19 19V16.2266C19 14.2471 19.405 12.6818 20.2324 11.6582C21.0598 10.6346 22.3369 10 24.5801 10Z" fill="black"/>
</svg>
